<svg width="22" height="21" viewBox="0 0 22 21" fill="none" xmlns="http://www.w3.org/2000/svg">
<g clip-path="url(#clip0_2953_63633)">
<path d="M1.27043 13.7617H11.111V15.5698H17.2625V13.7657H19.7063C19.8646 15.916 19.8771 17.8305 17.6716 19.2899C17.6447 19.3076 17.623 19.3319 17.5633 19.3851C17.8345 19.6104 18.1018 19.833 18.3665 20.053C18.0092 20.3946 17.7222 20.6691 17.3932 20.9844C17.1029 20.6849 16.7889 20.3374 16.4467 20.0209C16.3462 19.9276 16.1683 19.8895 16.0224 19.8803C15.784 19.8659 15.5423 19.9046 15.302 19.9053C12.1067 19.9072 8.91145 19.9066 5.71554 19.9066C5.56251 19.9066 5.39897 19.9361 5.25777 19.8935C4.83151 19.7654 4.56092 19.9631 4.3074 20.2685C4.09132 20.5286 3.84502 20.763 3.61975 21.0008C3.31566 20.6809 3.04046 20.3919 2.73572 20.0708C2.93998 19.8902 3.19941 19.6603 3.49102 19.4015C3.29004 19.2577 3.13964 19.1579 2.99712 19.0475C1.92919 18.2246 1.35187 17.133 1.27634 15.7925C1.23891 15.1285 1.26977 14.4605 1.26977 13.7617H1.27043Z" fill="white"/>
<path d="M1.27359 8.78721C1.26834 8.66834 1.25914 8.56128 1.25914 8.45423C1.25848 6.71375 1.25651 4.97393 1.25914 3.23345C1.26177 1.3209 2.58913 -0.0136865 4.49905 0.000105915C5.14007 0.0047034 5.8008 -0.00843228 6.41686 0.136717C7.50975 0.394833 8.19806 1.15276 8.53039 2.22069C8.59476 2.42824 8.67817 2.52872 8.90607 2.59046C10.1921 2.93921 11.0945 4.14113 11.1109 5.48228C11.1135 5.69836 11.1109 5.91444 11.1109 6.14891H5.02382C4.73353 4.61401 5.56764 3.02985 7.3114 2.53529C7.15377 1.85027 6.47926 1.2723 5.77124 1.24734C5.23597 1.22829 4.69872 1.22632 4.16344 1.24734C3.24066 1.28346 2.49849 2.13071 2.49455 3.14676C2.48798 4.89774 2.49258 6.64938 2.49258 8.40037C2.49258 8.5199 2.49258 8.63944 2.49258 8.78656H1.27228L1.27359 8.78721Z" fill="white"/>
<path d="M11.0936 12.5328C10.9648 12.5328 10.8683 12.5328 10.7718 12.5328C7.64415 12.5328 4.51589 12.5335 1.38828 12.5321C0.715079 12.5321 0.231029 12.2136 0.0609225 11.6698C-0.195223 10.8514 0.384717 10.0633 1.26875 10.0515C2.20926 10.039 3.14978 10.0482 4.09029 10.0482C6.29971 10.0482 8.50847 10.0482 10.7179 10.0482C10.8361 10.0482 10.9543 10.0482 11.0936 10.0482V12.5321V12.5328Z" fill="white"/>
<path d="M16.0247 14.3712H12.3644C12.3585 14.2556 12.3486 14.1506 12.3486 14.0455C12.3473 12.7772 12.3473 11.5083 12.3486 10.2401C12.3493 9.32254 12.8504 8.81813 13.764 8.81419C14.1029 8.81288 14.4418 8.80565 14.7807 8.81616C15.5419 8.84046 16.0391 9.35209 16.0411 10.1153C16.045 11.4387 16.0424 12.7615 16.0411 14.0849C16.0411 14.1709 16.0319 14.2563 16.0247 14.3712Z" fill="white"/>
<path d="M17.2852 12.5203V10.0475C17.8802 10.0475 18.4667 10.0455 19.0526 10.0481C19.358 10.0495 19.6699 10.0245 19.9688 10.0738C20.621 10.1815 21.0452 10.7154 21.0183 11.3387C20.992 11.9502 20.5408 12.475 19.9005 12.5085C19.0414 12.5538 18.1784 12.5196 17.2858 12.5196L17.2852 12.5203Z" fill="white"/>
</g>
<defs>
<clipPath id="clip0_2953_63633">
<rect width="21.0171" height="21" fill="white"/>
</clipPath>
</defs>
</svg>
