<svg width="24" height="24" viewBox="0 0 24 24" fill="none" xmlns="http://www.w3.org/2000/svg">
<path d="M19.502 2.40039C19.9988 2.4006 20.4014 2.80386 20.4014 3.30078C20.4012 3.79753 19.9987 4.19998 19.502 4.2002H19.2012V19.8008H19.502C19.9988 19.801 20.4013 20.2034 20.4014 20.7002C20.4014 21.1971 19.9988 21.6004 19.502 21.6006H15.3018C14.8047 21.6006 14.4014 21.1973 14.4014 20.7002V17.7002C14.4013 17.2034 13.9988 16.801 13.502 16.8008H10.502C10.005 16.8008 9.60167 17.2032 9.60156 17.7002V20.7002C9.60156 21.1973 9.19823 21.6006 8.70117 21.6006H4.50195C4.0049 21.6006 3.60156 21.1973 3.60156 20.7002C3.60167 20.2032 4.00496 19.8008 4.50195 19.8008H4.80176V4.2002H4.50195C4.00503 4.2002 3.60177 3.79766 3.60156 3.30078C3.60156 2.80372 4.0049 2.40039 4.50195 2.40039H19.502ZM9.00195 10.8008C8.67058 10.8008 8.40137 11.069 8.40137 11.4004V12.6006C8.40147 12.9319 8.67065 13.2002 9.00195 13.2002H10.2012C10.5325 13.2002 10.8017 12.9319 10.8018 12.6006V11.4004C10.8018 11.069 10.5325 10.8008 10.2012 10.8008H9.00195ZM13.8018 10.8008C13.4704 10.8008 13.2012 11.069 13.2012 11.4004V12.6006C13.2013 12.9319 13.4705 13.2002 13.8018 13.2002H15.002C15.3331 13.2 15.6015 12.9317 15.6016 12.6006V11.4004C15.6016 11.0692 15.3331 10.801 15.002 10.8008H13.8018ZM9.00195 6C8.67058 6 8.40137 6.26922 8.40137 6.60059V7.80078C8.40158 8.13197 8.67071 8.40039 9.00195 8.40039H10.2012C10.5324 8.40039 10.8015 8.13197 10.8018 7.80078V6.60059C10.8018 6.26922 10.5325 6 10.2012 6H9.00195ZM13.8018 6C13.4704 6 13.2012 6.26922 13.2012 6.60059V7.80078C13.2014 8.13197 13.4705 8.40039 13.8018 8.40039H15.002C15.333 8.40018 15.6014 8.13184 15.6016 7.80078V6.60059C15.6016 6.26935 15.3331 6.00021 15.002 6H13.8018Z" fill="white"/>
</svg>
