<svg width="24" height="24" viewBox="0 0 24 24" fill="none" xmlns="http://www.w3.org/2000/svg">
<path d="M19.0065 3.70505C19.3958 3.56349 19.5966 3.13317 19.455 2.7439C19.3135 2.35462 18.8832 2.1538 18.4939 2.29536L6.00037 6.83846V3.00021C6.00037 2.58599 5.66458 2.25021 5.25037 2.25021H3.75037C3.33615 2.25021 3.00037 2.58599 3.00037 3.00021V7.92937L1.9939 8.29536C1.60462 8.43691 1.4038 8.86724 1.54536 9.25651C1.68691 9.64579 2.11724 9.8466 2.50651 9.70505L19.0065 3.70505Z" fill="#999999"/>
<path fill-rule="evenodd" clip-rule="evenodd" d="M3.01932 11.1147L18.0004 5.66708V9.08858L22.0065 10.5454C22.3958 10.6869 22.5966 11.1172 22.455 11.5065C22.3135 11.8958 21.8832 12.0966 21.4939 11.955L21.0002 11.7755V20.2502H21.7504C22.1646 20.2502 22.5004 20.586 22.5004 21.0002C22.5004 21.4144 22.1646 21.7502 21.7504 21.7502H2.25037C1.83615 21.7502 1.50037 21.4144 1.50037 21.0002C1.50037 20.586 1.83615 20.2502 2.25037 20.2502H3.00037V11.1215L3.01932 11.1147ZM18.0004 20.2502V10.6847L19.5002 11.2301V20.2502H18.0004ZM9.00037 14.2502C8.58615 14.2502 8.25037 14.586 8.25037 15.0002V19.5002C8.25037 19.9144 8.58615 20.2502 9.00037 20.2502H12.0004C12.4146 20.2502 12.7504 19.9144 12.7504 19.5002V15.0002C12.7504 14.586 12.4146 14.2502 12.0004 14.2502H9.00037Z" fill="#999999"/>
</svg>
