<svg width="22" height="21" viewBox="0 0 22 21" fill="none" xmlns="http://www.w3.org/2000/svg">
<path d="M9.81095 0.460348C10.2045 -0.152415 11.1002 -0.152414 11.4937 0.460349L14.5328 5.1918C14.6682 5.40264 14.8778 5.55495 15.1202 5.61859L20.5592 7.04678C21.2636 7.23174 21.5403 8.08352 21.0792 8.6472L17.5184 12.9996C17.3597 13.1935 17.2797 13.44 17.294 13.6901L17.6165 19.3043C17.6583 20.0313 16.9337 20.5578 16.2551 20.2934L11.0154 18.2518C10.7819 18.1609 10.5228 18.1609 10.2893 18.2518L5.04959 20.2934C4.37101 20.5578 3.64644 20.0313 3.6882 19.3043L4.01065 13.6901C4.02502 13.44 3.94494 13.1935 3.78628 12.9996L0.225506 8.6472C-0.235643 8.08352 0.0411189 7.23174 0.745514 7.04678L6.18451 5.61859C6.42687 5.55495 6.6365 5.40264 6.77192 5.1918L9.81095 0.460348Z" fill="#FFE600"/>
</svg>
